<svg width="48" height="50" viewBox="0 0 48 50" fill="none" xmlns="http://www.w3.org/2000/svg">
<mask id="path-1-inside-1_1_2555" fill="white">
<path d="M0 16C0 7.16344 7.16344 0 16 0H48V50H0V16Z"/>
</mask>
<path d="M0 0H48H0ZM48 51H0V49H48V51ZM0 50V0V50ZM48 0V50V0Z" fill="#3D3D3D" mask="url(#path-1-inside-1_1_2555)"/>
<path d="M15.5996 19.7001C15.5996 18.7453 15.9789 17.8296 16.654 17.1545C17.3292 16.4794 18.2448 16.1001 19.1996 16.1001H28.7996C29.7544 16.1001 30.6701 16.4794 31.3452 17.1545C32.0203 17.8296 32.3996 18.7453 32.3996 19.7001V29.3001C32.3996 30.2549 32.0203 31.1706 31.3452 31.8457C30.6701 32.5208 29.7544 32.9001 28.7996 32.9001H19.1996C18.2448 32.9001 17.3292 32.5208 16.654 31.8457C15.9789 31.1706 15.5996 30.2549 15.5996 29.3001V19.7001ZM19.1996 17.9001C18.7222 17.9001 18.2644 18.0897 17.9268 18.4273C17.5893 18.7649 17.3996 19.2227 17.3996 19.7001V29.3001C17.3996 29.7775 17.5893 30.2353 17.9268 30.5729C18.2644 30.9105 18.7222 31.1001 19.1996 31.1001H28.7996C29.277 31.1001 29.7348 30.9105 30.0724 30.5729C30.41 30.2353 30.5996 29.7775 30.5996 29.3001V19.7001C30.5996 19.2227 30.41 18.7649 30.0724 18.4273C29.7348 18.0897 29.277 17.9001 28.7996 17.9001H19.1996Z" fill="#F6F6F6"/>
</svg>
