<svg width="48" height="49" viewBox="0 0 48 49" fill="none" xmlns="http://www.w3.org/2000/svg">
<mask id="path-1-inside-1_1_2969" fill="white">
<path d="M0 16C0 7.16345 7.16344 0 16 0H48V49H0V16Z"/>
</mask>
<path d="M0 0H48H0ZM48 50H0V48H48V50ZM0 49V0V49ZM48 0V49V0Z" fill="#3D3D3D" mask="url(#path-1-inside-1_1_2969)"/>
<path d="M15.5996 19.1996C15.5996 18.2448 15.9789 17.3292 16.654 16.654C17.3292 15.9789 18.2448 15.5996 19.1996 15.5996H28.7996C29.7544 15.5996 30.6701 15.9789 31.3452 16.654C32.0203 17.3292 32.3996 18.2448 32.3996 19.1996V28.7996C32.3996 29.7544 32.0203 30.6701 31.3452 31.3452C30.6701 32.0203 29.7544 32.3996 28.7996 32.3996H19.1996C18.2448 32.3996 17.3292 32.0203 16.654 31.3452C15.9789 30.6701 15.5996 29.7544 15.5996 28.7996V19.1996ZM19.1996 17.3996C18.7222 17.3996 18.2644 17.5893 17.9268 17.9268C17.5893 18.2644 17.3996 18.7222 17.3996 19.1996V28.7996C17.3996 29.277 17.5893 29.7348 17.9268 30.0724C18.2644 30.41 18.7222 30.5996 19.1996 30.5996H28.7996C29.277 30.5996 29.7348 30.41 30.0724 30.0724C30.41 29.7348 30.5996 29.277 30.5996 28.7996V19.1996C30.5996 18.7222 30.41 18.2644 30.0724 17.9268C29.7348 17.5893 29.277 17.3996 28.7996 17.3996H19.1996Z" fill="#F6F6F6"/>
</svg>
