<svg width="123" height="60" viewBox="0 0 123 60" fill="none" xmlns="http://www.w3.org/2000/svg">
<path fill-rule="evenodd" clip-rule="evenodd" d="M59.1876 59.7442L77.1851 0H109.655C114.974 0.804012 125.018 5.90021 122.643 19.8529C119.674 37.2938 106.872 47.6841 79.0405 43.9732L74.7731 59.7442H59.1876ZM87.3899 12.4313L82.3802 32.2842H93.8838C98.0275 32.2842 106.612 30.3174 107.799 22.4505C108.987 14.5835 104.707 12.4931 102.419 12.4313H87.3899Z" fill="white"/>
<path fill-rule="evenodd" clip-rule="evenodd" d="M56.7756 59.7442L74.2164 0H54.178L0 59.7442H19.1107L28.5733 48.4262H43.4166L38.0359 59.7442H56.7756ZM50.8383 18.3686L34.8817 38.7781H46.3853L55.1057 18.3686H50.8383Z" fill="white"/>
<path d="M42.8554 46.3941L41 47.3218L45.453 52.3315C47.0857 53.2221 56.8947 49.7339 61.5951 47.8785L59.183 56.97C60.3705 56.97 61.9043 55.8567 62.5228 55.3001L69.9444 44.3532C74.3974 42.4359 83.526 38.1932 84.4166 36.5605C85.3072 34.9277 81.5717 34.8906 79.5926 35.0761C75.2633 36.9934 66.5676 40.7908 66.4191 40.6424C66.2707 40.4939 55.1011 37.2408 49.5349 35.6328C49.238 35.4843 47.3084 36.4368 46.3807 36.9315L58.4409 44.1676L48.6072 48.6206C48.1619 48.0269 44.5871 46.8889 42.8554 46.3941Z" fill="black"/>
</svg>
