<svg width="170" height="24" viewBox="0 0 170 24" fill="none" xmlns="http://www.w3.org/2000/svg">
<path fill-rule="evenodd" clip-rule="evenodd" d="M21.795 23L28.4224 1H40.3789C42.3375 1.29607 46.036 3.17267 45.1615 8.31056C44.0683 14.7329 39.354 18.559 29.1056 17.1925L27.5342 23H21.795ZM32.1801 5.57764L30.3354 12.8882H34.5714C36.0973 12.8882 39.2584 12.164 39.6957 9.26708C40.1329 6.37019 38.5569 5.60041 37.7143 5.57764H32.1801Z" fill="black"/>
<path fill-rule="evenodd" clip-rule="evenodd" d="M20.9068 23L27.3292 1H19.9503L0 23H7.03727L10.5217 18.8323H15.9876L14.0062 23H20.9068ZM18.7205 7.76398L12.8447 15.2795H17.0807L20.2919 7.76398H18.7205Z" fill="black"/>
<path d="M15.7809 18.0839L15.0977 18.4255L16.7374 20.2703C17.3386 20.5982 20.9507 19.3137 22.6815 18.6305L21.7933 21.9783C22.2306 21.9783 22.7954 21.5684 23.0231 21.3634L25.756 17.3324C27.3958 16.6264 30.7573 15.064 31.0852 14.4628C31.4132 13.8616 30.0376 13.8479 29.3088 13.9162C27.7146 14.6222 24.5126 16.0206 24.4579 15.9659C24.4032 15.9113 20.2902 14.7133 18.2405 14.1212C18.1312 14.0665 17.4206 14.4173 17.079 14.5994L21.52 17.264L17.8989 18.9038C17.7349 18.6852 16.4186 18.2661 15.7809 18.0839Z" fill="white"/>
<path d="M65.372 8.117L71.594 20H66.834L66.086 18.555H56.039L55.274 20H50.531L56.753 8.117H65.372ZM57.62 15.512H64.488L62.176 11.092H59.949L57.62 15.512ZM86.6222 8.117H91.3822L85.1602 20H76.5412L70.3192 8.117H75.0622L79.7372 17.025H81.9642L86.6222 8.117ZM97.7007 20H92.9577V8.117H97.7007V20ZM114.164 8.117L120.386 20H115.626L114.878 18.555H104.831L104.066 20H99.323L105.545 8.117H114.164ZM106.412 15.512H113.28L110.968 11.092H108.741L106.412 15.512ZM137.889 8.117C139.249 8.117 140.337 9.205 140.337 10.565V13.064C140.337 14.424 139.249 15.512 137.889 15.512H126.737V20H121.994V8.117H137.889ZM135.577 11.959C135.662 11.483 135.305 11.092 134.846 11.092H126.737V12.571H134.812C135.186 12.571 135.526 12.316 135.577 11.959ZM147.223 20H142.48V8.117H147.223V20ZM168.191 12.571H163.448V12.316C163.448 11.636 162.904 11.075 162.224 11.075H155.815C155.135 11.075 154.591 11.636 154.591 12.299V15.801C154.591 16.481 155.135 17.025 155.815 17.025H162.224C162.904 17.025 163.448 16.481 163.448 15.801V15.512H168.191V17.569C168.191 18.912 167.103 20 165.76 20H152.279C150.936 20 149.848 18.912 149.848 17.569V10.548C149.848 9.205 150.936 8.117 152.279 8.117H165.76C167.103 8.117 168.191 9.205 168.191 10.548V12.571Z" fill="black"/>
</svg>
