<svg width="185" height="26" viewBox="0 0 185 26" fill="none" xmlns="http://www.w3.org/2000/svg">
<path fill-rule="evenodd" clip-rule="evenodd" d="M25.7578 26L33.5901 0H47.7205C50.0352 0.349896 54.4062 2.5677 53.3727 8.63975C52.0807 16.2298 46.5093 20.7516 34.3975 19.1366L32.5404 26H25.7578ZM38.0311 5.40994L35.8509 14.0497H40.8571C42.6605 14.0497 46.3963 13.1938 46.913 9.77019C47.4298 6.34658 45.5673 5.43685 44.5714 5.40994H38.0311Z" fill="white"/>
<path fill-rule="evenodd" clip-rule="evenodd" d="M24.7081 26L32.2981 0H23.5776L0 26H8.31677L12.4348 21.0745H18.8944L16.5528 26H24.7081ZM22.1242 7.99379L15.1801 16.8758H20.1863L23.9814 7.99379H22.1242Z" fill="white"/>
<path d="M18.6502 20.1903L17.8428 20.594L19.7807 22.7741C20.4912 23.1617 24.76 21.6437 26.8055 20.8363L25.7558 24.7928C26.2726 24.7928 26.9401 24.3083 27.2092 24.0661L30.439 19.3021C32.3769 18.4677 36.3496 16.6213 36.7372 15.9108C37.1248 15.2002 35.4991 15.1841 34.6378 15.2648C32.7537 16.0992 28.9695 17.7518 28.9049 17.6872C28.8403 17.6226 23.9794 16.2069 21.5571 15.5071C21.4279 15.4425 20.5881 15.857 20.1844 16.0723L25.4328 19.2213L21.1533 21.1592C20.9595 20.9008 19.4038 20.4056 18.6502 20.1903Z" fill="black"/>
<path d="M74.4943 9.418L81.0823 22H76.0423L75.2503 20.47H64.6123L63.8023 22H58.7803L65.3683 9.418H74.4943ZM66.2863 17.248H73.5583L71.1103 12.568H68.7523L66.2863 17.248ZM96.9946 9.418H102.035L95.4466 22H86.3206L79.7326 9.418H84.7546L89.7046 18.85H92.0626L96.9946 9.418ZM108.725 22H103.703V9.418H108.725V22ZM126.156 9.418L132.744 22H127.704L126.912 20.47H116.274L115.464 22H110.442L117.03 9.418H126.156ZM117.948 17.248H125.22L122.772 12.568H120.414L117.948 17.248ZM151.277 9.418C152.717 9.418 153.869 10.57 153.869 12.01V14.656C153.869 16.096 152.717 17.248 151.277 17.248H139.469V22H134.447V9.418H151.277ZM148.829 13.486C148.919 12.982 148.541 12.568 148.055 12.568H139.469V14.134H148.019C148.415 14.134 148.775 13.864 148.829 13.486ZM161.16 22H156.138V9.418H161.16V22ZM183.362 14.134H178.34V13.864C178.34 13.144 177.764 12.55 177.044 12.55H170.258C169.538 12.55 168.962 13.144 168.962 13.846V17.554C168.962 18.274 169.538 18.85 170.258 18.85H177.044C177.764 18.85 178.34 18.274 178.34 17.554V17.248H183.362V19.426C183.362 20.848 182.21 22 180.788 22H166.514C165.092 22 163.94 20.848 163.94 19.426V11.992C163.94 10.57 165.092 9.418 166.514 9.418H180.788C182.21 9.418 183.362 10.57 183.362 11.992V14.134Z" fill="white"/>
</svg>
