<svg width="16" height="16" viewBox="0 0 16 16" fill="none" xmlns="http://www.w3.org/2000/svg">
<path d="M13.5306 5.53196L8.5306 10.532C8.46092 10.6019 8.37813 10.6574 8.28696 10.6952C8.1958 10.7331 8.09806 10.7525 7.99935 10.7525C7.90064 10.7525 7.8029 10.7331 7.71174 10.6952C7.62057 10.6574 7.53778 10.6019 7.4681 10.532L2.4681 5.53196C2.3272 5.39106 2.24805 5.19996 2.24805 5.00071C2.24805 4.80145 2.3272 4.61035 2.4681 4.46946C2.609 4.32856 2.80009 4.24941 2.99935 4.24941C3.19861 4.24941 3.3897 4.32856 3.5306 4.46946L7.99998 8.93883L12.4694 4.46883C12.6102 4.32794 12.8013 4.24878 13.0006 4.24878C13.1999 4.24878 13.391 4.32794 13.5319 4.46883C13.6727 4.60973 13.7519 4.80083 13.7519 5.00008C13.7519 5.19934 13.6727 5.39044 13.5319 5.53133L13.5306 5.53196Z" fill="black"/>
</svg>
