<svg width="541" height="105" viewBox="0 0 541 105" fill="none" xmlns="http://www.w3.org/2000/svg">
<path d="M2.00052 102.098C26.1852 92.5065 37.1514 93.0308 46.1159 96.2236C54.576 99.2368 63.7925 98.4362 70.6245 92.6072L96.1694 70.8119C105.821 62.5769 120.425 64.2193 128.006 74.3926C133.86 82.2468 144.21 85.2702 153.37 81.8019L173.412 74.2141C177.081 72.8248 181.036 72.3564 184.928 72.8498L201.653 74.9698C207.692 75.7353 213.796 74.1773 218.73 70.6113L235.472 58.5101C238.129 56.5893 241.152 55.2335 244.353 54.5261L266.913 49.542C275.858 47.5658 284.896 52.4645 288.122 61.0382C293.254 74.6727 312.416 79.2892 324.278 70.8325C340.688 59.1338 360.055 46.9328 365 46.0984C371.519 44.9985 390.923 47.6953 405.752 51.0046C415.417 53.1614 426.165 51.0379 433.246 44.1159L463.192 14.8427C465.052 13.0253 467.194 11.522 469.535 10.3917L481.974 4.38689C489.986 0.518721 499.481 1.40081 506.644 6.67879L510.464 9.49296C512.801 11.2157 515.433 12.4997 518.229 13.2827L539 19.0984" stroke="#09BAD9" stroke-width="4" stroke-linecap="round" stroke-dasharray="7 7"/>
</svg>
