<svg width="534" height="114" viewBox="0 0 534 114" fill="none" xmlns="http://www.w3.org/2000/svg">
<path d="M2.0043 86.6626C34.4593 74.26 53.886 98.3611 68.3947 109.188C72.5018 112.253 77.8129 112.505 82.7669 111.194L122.307 100.727C124.908 100.039 127.376 98.9182 129.606 97.4125L163.308 74.6641C165.299 73.3199 167.481 72.2817 169.78 71.5843L207.482 60.1466C209.745 59.46 212.097 59.1111 214.462 59.1111H231.27C236.573 59.1111 241.727 60.8642 245.931 64.0974L265.497 79.1486L290.74 96.3596C304.932 106.036 324.4 98.1403 327.843 81.3115L328.288 79.1322C329.158 74.881 331.118 70.8273 334.803 68.5362C349.736 59.2521 382.606 51.9974 391.232 50.5952C395.65 49.8769 409.237 52.5175 421.874 53.9391C437.825 55.7335 460.917 41.1155 476.472 37.1534L489.369 33.8683C495.199 32.3833 500.26 28.7667 503.554 23.7323L508.448 16.253C511.105 12.1924 514.928 9.03065 519.415 7.18338L531.996 2.00427" stroke="white" stroke-width="4" stroke-linecap="round"/>
</svg>
